<svg width="42" height="30" viewBox="0 0 42 30" fill="none" xmlns="http://www.w3.org/2000/svg">
<path d="M3.08333 15.5833V16.5C3.08333 17.6045 3.97876 18.5 5.08333 18.5H36.9167C38.0212 18.5 38.9167 17.6045 38.9167 16.5V15.5833M3.08333 15.5833V10.0333C3.08333 9.64673 3.39673 9.33333 3.78333 9.33333H6M3.08333 15.5833H3C1.89543 15.5833 1 16.4787 1 17.5833V23.8333C1 24.1095 1.22386 24.3333 1.5 24.3333H2.25M38.9167 15.5833H39C40.1046 15.5833 41 16.4787 41 17.5833V23.8333C41 24.1095 40.7761 24.3333 40.5 24.3333H39.75M38.9167 15.5833V10.0333C38.9167 9.64673 38.6033 9.33333 38.2167 9.33333H36M39.75 24.3333V26.2833C39.75 27.2774 38.9441 28.0833 37.95 28.0833H32.3833C31.3892 28.0833 30.5833 27.2774 30.5833 26.2833V22.6666M39.75 24.3333H34.4167C34.1405 24.3333 33.9167 24.1095 33.9167 23.8333V23.1666C33.9167 22.8905 33.6928 22.6666 33.4167 22.6666H30.5833M2.25 24.3333V26.7C2.25 27.6941 3.05589 28.5 4.05 28.5H9.61666C10.6108 28.5 11.4167 27.6941 11.4167 26.7V22.6666M2.25 24.3333H7.58333C7.85948 24.3333 8.08333 24.1095 8.08333 23.8333V23.1666C8.08333 22.8905 8.30719 22.6666 8.58333 22.6666H11.4167M30.5833 22.6666H11.4167M7.66667 13.9166H7.68333M34.3333 13.9166H34.35M6 9.33333H36M6 9.33333V5.16667M36 9.33333V5.16667M36 5.16667V1M36 5.16667H6M6 5.16667V1M16.8333 13.5C16.8333 13.5 18.5 14.75 21 14.75C23.5 14.75 25.1667 13.5 25.1667 13.5" stroke="#ee7b46" stroke-width="2" stroke-linecap="round"/>
</svg>
